<?xml version="1.0" encoding="utf-8"?><svg viewBox="0 0 64 64" xmlns="http://www.w3.org/2000/svg" xmlns:xlink="http://www.w3.org/1999/xlink"><style>:root>svg{display:none}:root>svg:target{display:block}</style><svg fill="none" viewBox="0 0 49 49" id="add" xmlns="http://www.w3.org/2000/svg"><path d="M24.5 44.79c-11.178 0-20.29-9.112-20.29-20.29 0-11.178 9.112-20.29 20.29-20.29 11.178 0 20.29 9.112 20.29 20.29 0 11.178-9.112 20.29-20.29 20.29zm0-38.282c-9.915 0-17.992 8.077-17.992 17.992 0 9.915 8.077 17.992 17.992 17.992 9.915 0 17.992-8.077 17.992-17.992 0-9.915-8.077-17.992-17.992-17.992z" fill="#fff"/><path d="M24.5 31.39c-.65 0-1.148-.497-1.148-1.148V18.758c0-.651.497-1.149 1.148-1.149.65 0 1.148.498 1.148 1.149v11.484c0 .651-.497 1.149-1.148 1.149z" fill="#fff"/><path d="M30.242 25.648H18.758a1.128 1.128 0 01-1.149-1.148c0-.65.498-1.148 1.149-1.148h11.484c.651 0 1.149.497 1.149 1.148 0 .65-.498 1.148-1.149 1.148z" fill="#fff"/></svg><svg fill="none" viewBox="0 0 60 59" id="approv" xmlns="http://www.w3.org/2000/svg"><path d="M30 5.047l-.375.214-5.394 3.062h-6.665l-3.33 5.675-5.772 3.276v6.554L5.133 29.5l3.33 5.672v6.555l5.772 3.275 3.331 5.675h6.665L30 53.953l5.769-3.276h6.665l3.33-5.675 5.772-3.276v-6.553l3.331-5.673-3.33-5.672v-6.554l-5.772-3.276-3.331-5.675h-6.665L30 5.047zm0 1.706l5.367 3.045h6.2l3.099 5.28 5.37 3.049v6.095l3.097 5.278-3.097 5.278v6.096l-5.37 3.048-3.1 5.28h-6.199L30 52.247l-5.367-3.045h-6.2l-3.099-5.28-5.37-3.048v-6.096L6.867 29.5l3.097-5.278v-6.096l5.37-3.048 3.1-5.28h6.199L30 6.753zm0 2.097a.745.745 0 00-.75.738c0 .406.337.737.75.737s.75-.331.75-.737A.745.745 0 0030 8.85zm-10.143 2.668a.745.745 0 00-.709.547.733.733 0 00.534.902c.19.052.395.026.568-.072a.732.732 0 00.273-1.008.747.747 0 00-.666-.37zm20.233.003a.752.752 0 00-.615.368.73.73 0 00.275 1.006.754.754 0 001.023-.268.713.713 0 00.076-.562.73.73 0 00-.349-.45.75.75 0 00-.41-.094zM30 11.8a.745.745 0 00-.75.737c0 .406.337.737.75.737s.75-.331.75-.737A.745.745 0 0030 11.8zm-3.363.325a.74.74 0 00-.738.882c.082.4.477.659.881.578a.74.74 0 00.592-.867.753.753 0 00-.735-.593zm6.75 0a.748.748 0 00-.756.593c-.082.4.181.787.589.867.407.08.8-.178.882-.579a.736.736 0 00-.715-.881zm3.231.965a.752.752 0 00-.712.452.747.747 0 00.003.568.748.748 0 00.407.397.75.75 0 00.976-.4.728.728 0 00-.404-.963.714.714 0 00-.27-.054zm-13.216 0c-.1 0-.196.017-.29.057a.728.728 0 00-.404.963.751.751 0 00.976.397.73.73 0 00.407-.397.74.74 0 00.003-.565.759.759 0 00-.692-.455zm-2.976 1.567a.732.732 0 00-.425.124.728.728 0 00-.208 1.023.757.757 0 001.04.204.728.728 0 00.205-1.026.747.747 0 00-.612-.325zm19.172 0a.748.748 0 00-.636.325.73.73 0 00.205 1.023.757.757 0 001.04-.201.728.728 0 00-.208-1.023.756.756 0 00-.401-.124zm-21.785 2.109a.739.739 0 00-.54.219.725.725 0 000 1.04.755.755 0 001.058 0 .725.725 0 000-1.04.757.757 0 00-.518-.22zm24.395 0a.762.762 0 00-.54.219.725.725 0 000 1.04.755.755 0 001.059 0 .725.725 0 000-1.04.744.744 0 00-.519-.22zm5.312 2.04a.793.793 0 00-.36.097.731.731 0 00-.273 1.009.755.755 0 001.374-.179.716.716 0 00-.074-.559.759.759 0 00-.667-.369zm-35.092 0a.753.753 0 00-.616.368.729.729 0 00.276 1.005.758.758 0 001.025-.267.731.731 0 00-.275-1.006.755.755 0 00-.41-.1zm31.924.53a.773.773 0 00-.427.126.729.729 0 00-.205 1.023.758.758 0 001.04.201.73.73 0 00.205-1.022.75.75 0 00-.613-.329zm-28.681 0a.753.753 0 00-.636.33.724.724 0 00.208 1.02.754.754 0 001.037-.201.727.727 0 00-.205-1.023.744.744 0 00-.404-.127zm22.125 2.483l-9.78 9.616-4.546-4.076-3.147 3.572 7.91 6.957 12.952-12.736-3.39-3.333zm-23.719.452a.744.744 0 00-.706.452.73.73 0 00.404.965.752.752 0 00.979-.4.728.728 0 00-.404-.962.729.729 0 00-.273-.055zm31.863 0a.72.72 0 00-.29.055.728.728 0 00-.404.962.752.752 0 00.979.4.73.73 0 00.404-.965.744.744 0 00-.689-.452zm-8.144 1.634l1.269 1.247-10.89 10.708-5.748-5.059 1.172-1.33 4.467 4.004 9.73-9.57zm-24.694 1.55a.743.743 0 00-.756.59.74.74 0 00.589.87.75.75 0 00.881-.582.728.728 0 00-.11-.553.753.753 0 00-.604-.326zm33.82 0a.75.75 0 00-.627.325.729.729 0 00.208 1.023.758.758 0 001.04-.202.735.735 0 00.114-.556.747.747 0 00-.735-.59zM9.75 28.762A.745.745 0 009 29.5c0 .406.337.738.75.738s.75-.332.75-.738a.745.745 0 00-.75-.737zm3 0a.745.745 0 00-.75.737c0 .406.337.738.75.738s.75-.332.75-.738a.745.745 0 00-.75-.737zm34.5 0a.745.745 0 00-.75.737c0 .406.337.738.75.738s.75-.332.75-.738a.745.745 0 00-.75-.737zm3 0a.745.745 0 00-.75.737c0 .406.337.738.75.738s.75-.332.75-.738a.745.745 0 00-.75-.737zm-3.313 3.307a.738.738 0 00-.164 1.463.75.75 0 00.881-.579.74.74 0 00-.718-.884zm-33.85.003a.83.83 0 00-.15.011.771.771 0 00-.48.314.736.736 0 00.208 1.026.77.77 0 00.562.11.742.742 0 00.478-.315.711.711 0 00.111-.553.746.746 0 00-.73-.593zm.984 3.18a.768.768 0 00-.293.055.735.735 0 00-.407.965.752.752 0 00.981.398.732.732 0 00.405-.963.75.75 0 00-.686-.455zm31.881 0a.746.746 0 00-.706.455.728.728 0 00.404.963c.185.075.39.075.575 0a.733.733 0 000-1.363.79.79 0 00-.273-.055zm-1.596 2.933a.749.749 0 00-.636.325.733.733 0 00.205 1.026.757.757 0 001.043-.207.73.73 0 00-.208-1.023.739.739 0 00-.404-.121zm-28.688 0a.732.732 0 00-.425.124.728.728 0 00-.208 1.023.757.757 0 001.04.204.729.729 0 00.205-1.026.747.747 0 00-.612-.325zm-3.223.533a.772.772 0 00-.357.098.732.732 0 00.182 1.35c.19.053.395.027.568-.074a.717.717 0 00.349-.447.716.716 0 00-.074-.558.759.759 0 00-.668-.37zm35.054 0a.757.757 0 00-.612.369.731.731 0 00.272 1.008.754.754 0 001.028-.27.731.731 0 00-.278-1.005.755.755 0 00-.41-.102zm-29.687 2.037a.747.747 0 00-.539.216.729.729 0 000 1.043.755.755 0 001.058 0 .729.729 0 000-1.043.754.754 0 00-.518-.216zm24.396.002a.735.735 0 00-.542.217.725.725 0 000 1.04.759.759 0 001.06 0 .725.725 0 000-1.04.74.74 0 00-.518-.217zm-2.613 2.106a.773.773 0 00-.428.127.726.726 0 00-.205 1.02.756.756 0 001.04.204.73.73 0 00.205-1.022.75.75 0 00-.612-.329zm-19.163.003a.733.733 0 00-.43 1.348.755.755 0 001.039-.204.726.726 0 00-.205-1.02.725.725 0 00-.404-.124zm2.982 1.568a.743.743 0 00-.706.452.73.73 0 00.404.965.757.757 0 00.982-.4.732.732 0 00-.408-.963.728.728 0 00-.272-.054zm13.195 0a.717.717 0 00-.293.054.732.732 0 00-.407.962.756.756 0 00.982.4.735.735 0 00.404-.964.748.748 0 00-.686-.453zm-9.952.965a.753.753 0 00-.759.593.742.742 0 00.592.867c.407.08.8-.178.882-.579a.736.736 0 00-.592-.867.594.594 0 00-.123-.014zm6.712 0a.736.736 0 00-.738.882c.082.4.474.659.882.578a.736.736 0 00.589-.867.75.75 0 00-.733-.593zM30 45.725a.745.745 0 00-.75.738c0 .406.337.737.75.737s.75-.331.75-.737a.745.745 0 00-.75-.738zm10.105.28a.773.773 0 00-.355.1.727.727 0 00-.275 1.006.76.76 0 001.025.274.751.751 0 00.349-.45.713.713 0 00-.076-.562.752.752 0 00-.669-.368zm-20.265.005a.756.756 0 00-.615.366.733.733 0 00-.077.56.755.755 0 001.374.179.732.732 0 00-.272-1.01.756.756 0 00-.41-.095zM30 48.675a.745.745 0 00-.75.738c0 .406.337.737.75.737s.75-.331.75-.737a.745.745 0 00-.75-.738z" fill="#fff"/><path d="M30 8.85a.745.745 0 00-.75.738c0 .406.337.737.75.737s.75-.331.75-.737A.745.745 0 0030 8.85zm-10.143 2.668a.745.745 0 00-.709.547.733.733 0 00.534.902c.19.052.395.026.568-.072a.732.732 0 00.273-1.008.747.747 0 00-.666-.37zm20.233.003a.752.752 0 00-.615.368.73.73 0 00.275 1.006.754.754 0 001.023-.268.713.713 0 00.076-.562.73.73 0 00-.349-.45.75.75 0 00-.41-.094zM30 11.8a.745.745 0 00-.75.737c0 .406.337.737.75.737s.75-.331.75-.737A.745.745 0 0030 11.8zm-3.363.325a.74.74 0 00-.738.882c.082.4.477.659.881.578a.74.74 0 00.592-.867.753.753 0 00-.735-.593zm6.75 0a.748.748 0 00-.756.593c-.082.4.181.787.589.867.407.08.8-.178.882-.579a.736.736 0 00-.715-.881zm3.231.965a.752.752 0 00-.712.452.747.747 0 00.003.568.748.748 0 00.407.397.75.75 0 00.976-.4.728.728 0 00-.404-.963.714.714 0 00-.27-.054zm-13.216 0c-.1 0-.196.017-.29.057a.728.728 0 00-.404.963.751.751 0 00.976.397.73.73 0 00.407-.397.74.74 0 00.003-.565.759.759 0 00-.692-.455zm-2.976 1.567a.732.732 0 00-.425.124.728.728 0 00-.208 1.023.757.757 0 001.04.204.728.728 0 00.205-1.026.747.747 0 00-.612-.325zm19.172 0a.748.748 0 00-.636.325.73.73 0 00.205 1.023.757.757 0 001.04-.201.728.728 0 00-.208-1.023.756.756 0 00-.401-.124zm-21.785 2.109a.739.739 0 00-.54.219.725.725 0 000 1.04.755.755 0 001.058 0 .725.725 0 000-1.04.757.757 0 00-.518-.22zm24.395 0a.762.762 0 00-.54.219.725.725 0 000 1.04.755.755 0 001.059 0 .725.725 0 000-1.04.744.744 0 00-.519-.22zm5.312 2.04a.793.793 0 00-.36.097.731.731 0 00-.273 1.009.755.755 0 001.374-.179.716.716 0 00-.074-.559.759.759 0 00-.667-.369zm-35.092 0a.753.753 0 00-.616.368.729.729 0 00.276 1.005.758.758 0 001.025-.267.731.731 0 00-.275-1.006.755.755 0 00-.41-.1zm31.924.53a.773.773 0 00-.427.126.729.729 0 00-.205 1.023.758.758 0 001.04.201.73.73 0 00.205-1.022.75.75 0 00-.613-.329zm-28.681 0a.753.753 0 00-.636.33.724.724 0 00.208 1.02.754.754 0 001.037-.201.727.727 0 00-.205-1.023.744.744 0 00-.404-.127zm22.125 2.483l-9.78 9.616-4.546-4.076-3.147 3.572 7.91 6.957 12.952-12.736-3.39-3.333zm-23.719.452a.744.744 0 00-.706.452.73.73 0 00.404.965.752.752 0 00.979-.4.728.728 0 00-.404-.962.729.729 0 00-.273-.055zm31.863 0a.72.72 0 00-.29.055.728.728 0 00-.404.962.752.752 0 00.979.4.73.73 0 00.404-.965.744.744 0 00-.689-.452zm-8.144 1.634l1.269 1.247-10.89 10.708-5.748-5.059 1.172-1.33 4.467 4.004 9.73-9.57zm-24.694 1.55a.743.743 0 00-.756.59.74.74 0 00.589.87.75.75 0 00.881-.582.728.728 0 00-.11-.553.753.753 0 00-.604-.326zm33.82 0a.75.75 0 00-.627.325.729.729 0 00.208 1.023.758.758 0 001.04-.202.735.735 0 00.114-.556.747.747 0 00-.735-.59zM9.75 28.762A.745.745 0 009 29.5c0 .406.337.738.75.738s.75-.332.75-.738a.745.745 0 00-.75-.737zm3 0a.745.745 0 00-.75.737c0 .406.337.738.75.738s.75-.332.75-.738a.745.745 0 00-.75-.737zm34.5 0a.745.745 0 00-.75.737c0 .406.337.738.75.738s.75-.332.75-.738a.745.745 0 00-.75-.737zm3 0a.745.745 0 00-.75.737c0 .406.337.738.75.738s.75-.332.75-.738a.745.745 0 00-.75-.737zm-3.313 3.307a.738.738 0 00-.164 1.463.75.75 0 00.881-.579.74.74 0 00-.718-.884zm-33.85.003a.83.83 0 00-.15.011.771.771 0 00-.48.314.736.736 0 00.208 1.026.77.77 0 00.562.11.742.742 0 00.478-.315.711.711 0 00.111-.553.746.746 0 00-.73-.593zm.984 3.18a.768.768 0 00-.293.055.735.735 0 00-.407.965.752.752 0 00.981.398.732.732 0 00.405-.963.75.75 0 00-.686-.455zm31.881 0a.746.746 0 00-.706.455.728.728 0 00.404.963c.185.075.39.075.575 0a.733.733 0 000-1.363.79.79 0 00-.273-.055zm-1.596 2.933a.749.749 0 00-.636.325.733.733 0 00.205 1.026.757.757 0 001.043-.207.73.73 0 00-.208-1.023.739.739 0 00-.404-.121zm-28.688 0a.732.732 0 00-.425.124.728.728 0 00-.208 1.023.757.757 0 001.04.204.729.729 0 00.205-1.026.747.747 0 00-.612-.325zm-3.223.533a.772.772 0 00-.357.098.732.732 0 00.182 1.35c.19.053.395.027.568-.074a.717.717 0 00.349-.447.716.716 0 00-.074-.558.759.759 0 00-.668-.37zm35.054 0a.757.757 0 00-.612.369.731.731 0 00.272 1.008.754.754 0 001.028-.27.731.731 0 00-.278-1.005.755.755 0 00-.41-.102zm-29.687 2.037a.747.747 0 00-.539.216.729.729 0 000 1.043.755.755 0 001.058 0 .729.729 0 000-1.043.754.754 0 00-.518-.216zm24.396.002a.735.735 0 00-.542.217.725.725 0 000 1.04.759.759 0 001.06 0 .725.725 0 000-1.04.74.74 0 00-.518-.217zm-2.613 2.106a.773.773 0 00-.428.127.726.726 0 00-.205 1.02.756.756 0 001.04.204.73.73 0 00.205-1.022.75.75 0 00-.612-.329zm-19.163.003a.733.733 0 00-.43 1.348.755.755 0 001.039-.204.726.726 0 00-.205-1.02.725.725 0 00-.404-.124zm2.982 1.568a.743.743 0 00-.706.452.73.73 0 00.404.965.757.757 0 00.982-.4.732.732 0 00-.408-.963.728.728 0 00-.272-.054zm13.195 0a.717.717 0 00-.293.054.732.732 0 00-.407.962.756.756 0 00.982.4.735.735 0 00.404-.964.748.748 0 00-.686-.453zm-9.952.965a.753.753 0 00-.759.593.742.742 0 00.592.867c.407.08.8-.178.882-.579a.736.736 0 00-.592-.867.594.594 0 00-.123-.014zm6.712 0a.736.736 0 00-.738.882c.082.4.474.659.882.578a.736.736 0 00.589-.867.75.75 0 00-.733-.593zM30 45.725a.745.745 0 00-.75.738c0 .406.337.737.75.737s.75-.331.75-.737a.745.745 0 00-.75-.738zm10.105.28a.773.773 0 00-.355.1.727.727 0 00-.275 1.006.76.76 0 001.025.274.751.751 0 00.349-.45.713.713 0 00-.076-.562.752.752 0 00-.669-.368zm-20.265.005a.756.756 0 00-.615.366.733.733 0 00-.077.56.755.755 0 001.374.179.732.732 0 00-.272-1.01.756.756 0 00-.41-.095zM30 48.675a.745.745 0 00-.75.738c0 .406.337.737.75.737s.75-.331.75-.737a.745.745 0 00-.75-.738z" fill="#BD9457"/></svg><svg fill="inherit" viewBox="0 0 15 10" id="arrow" xmlns="http://www.w3.org/2000/svg"><path d="M4.516 5.703h7.218l-2.32 2.32c-.281.282-.281.727 0 .985.281.281.727.281.984 0l3.516-3.516A.716.716 0 0014.125 5a.675.675 0 00-.21-.492L10.397.992a.715.715 0 00-.492-.21.715.715 0 00-.492.21c-.281.281-.281.727 0 .985l2.32 2.32H4.516A.69.69 0 003.812 5a.69.69 0 00.704.703zM1 4.297a.703.703 0 100 1.406.703.703 0 000-1.406z"/></svg><svg fill="none" viewBox="0 0 64 64" id="car" xmlns="http://www.w3.org/2000/svg"><path d="M21.145 6a9.014 9.014 0 00-8.696 6.684L10.5 20H5c-1.652 0-3 1.348-3 3v2c0 1.652 1.348 3 3 3h.473A13.073 13.073 0 004 34v11c0 1.629.793 3.063 2 3.973V54c0 .73.21 1.41.555 2H1a1 1 0 100 2h62a1 1 0 100-2h-5.559c.348-.59.559-1.27.559-2v-5.027c1.207-.91 2-2.348 2-3.973V34c0-2.086-.516-4.156-1.473-6H59c1.652 0 3-1.348 3-3v-2c0-1.652-1.348-3-3-3h-5.5l-1.953-7.316A9.006 9.006 0 0042.856 6H21.143zm0 2h21.71a7.01 7.01 0 016.762 5.195l2.02 7.567a9.03 9.03 0 001.492 3.082l.598.793-1.75.851a4.993 4.993 0 01-2.2.512h-.867c-.476-2.832-2.941-5-5.91-5-2.969 0-5.43 2.168-5.91 5H14.316a5.02 5.02 0 01-2.214-.52l-1.797-.886.566-.75a8.996 8.996 0 001.492-3.082l2.02-7.567A7.01 7.01 0 0121.145 8zm8.773 4a1 1 0 100 2h4.25a1 1 0 100-2h-4.25zM5 22h4.695c-.133.219-.27.434-.425.64L6.75 26H5c-.55 0-1-.45-1-1v-2c0-.55.45-1 1-1zm49.309 0H59c.55 0 1 .45 1 1v2c0 .55-.45 1-1 1h-1.75l-2.52-3.36a6.682 6.682 0 01-.421-.64zM43 23c1.86 0 3.41 1.281 3.86 3h-7.72c.45-1.719 2-3 3.86-3zM9.086 26.219l2.133 1.058a7.042 7.042 0 003.097.723h35.461a7.007 7.007 0 003.078-.715l2.094-1.02.852 1.137a11.041 11.041 0 012.047 4.797c-.059.004-.117-.004-.176.008l-8.328 1.387A3.992 3.992 0 0046 37.543V38c0 1.102.898 2 2 2h10v5c0 1.652-1.348 3-3 3H9c-1.652 0-3-1.348-3-3v-5h10c1.102 0 2-.898 2-2v-.457a3.992 3.992 0 00-3.344-3.95l-8.328-1.386c-.058-.012-.117-.004-.176-.008.29-1.734.993-3.39 2.047-4.797l.887-1.183zM6 34.179l8.328 1.387A2 2 0 0116 37.543V38H6v-3.82zm52 .005V38H48v-.457a2 2 0 011.672-1.977L58 34.184zM22 36a1 1 0 00-1 1v2a1 1 0 102 0v-2a1 1 0 00-1-1zm5 0a1 1 0 00-1 1v2a1 1 0 102 0v-2a1 1 0 00-1-1zm5 0a1 1 0 00-1 1v2a1 1 0 102 0v-2a1 1 0 00-1-1zm5 0a1 1 0 00-1 1v2a1 1 0 102 0v-2a1 1 0 00-1-1zm5 0a1 1 0 00-1 1v2a1 1 0 102 0v-2a1 1 0 00-1-1zM8.918 42a1 1 0 100 2h4.25a1 1 0 100-2h-4.25zm8 0a1 1 0 100 2h30.25a1 1 0 100-2h-30.25zm34 0a1 1 0 100 2h4.25a1 1 0 100-2h-4.25zM8 50h6v4c0 1.102-.898 2-2 2h-2c-1.102 0-2-.898-2-2v-4zm8 0h32v4c0 .73.21 1.41.559 2H15.44c.348-.59.559-1.27.559-2v-4zm34 0h6v4c0 1.102-.898 2-2 2h-2c-1.102 0-2-.898-2-2v-4z" fill="#000"/><path d="M6 34.18l8.328 1.386A2 2 0 0116 37.543V38H6v-3.82zm52 .004V38H48v-.457a2 2 0 011.672-1.977L58 34.184zM22 36a1 1 0 00-1 1v2a1 1 0 102 0v-2a1 1 0 00-1-1zm5 0a1 1 0 00-1 1v2a1 1 0 102 0v-2a1 1 0 00-1-1zm5 0a1 1 0 00-1 1v2a1 1 0 102 0v-2a1 1 0 00-1-1zm5 0a1 1 0 00-1 1v2a1 1 0 102 0v-2a1 1 0 00-1-1zm5 0a1 1 0 00-1 1v2a1 1 0 102 0v-2a1 1 0 00-1-1zM8.918 42a1 1 0 100 2h4.25a1 1 0 100-2h-4.25zm8 0a1 1 0 100 2h30.25a1 1 0 100-2h-30.25zm34 0a1 1 0 100 2h4.25a1 1 0 100-2h-4.25z" fill="#BD9457"/></svg><svg fill="none" viewBox="0 0 61 60" id="cash" xmlns="http://www.w3.org/2000/svg"><path d="M30.5 3a3.786 3.786 0 00-3.553 2.502C26.267 4.896 25.386 4.5 24.4 4.5c-2.097 0-3.813 1.688-3.813 3.75v1.397C20.034 9.272 19.402 9 18.681 9c-1.885 0-3.431 1.52-3.431 3.375v1.875H3.812v30h11.51l.202 2.004c.19 1.863 1.293 3.387 2.776 4.371V57h1.525v-6c.42 0 .762-.337.762-.75a.758.758 0 00-.762-.75.768.768 0 00-.44.138c-1.276-.718-2.187-2.001-2.342-3.536l-.188-1.852h18.47l6.484-5.552.069-.16s1.614-4.038 6.725-4.038c2.11 0 2.81 1.028 3.06 1.474-.558.694-4.549 5.672-5.013 6.24l-6.634 8.144c-.327.399-1.891 1.972-1.891 4.372V57h1.525v-2.27c0-1.788 1.048-2.816 1.552-3.431h.003l5.742-7.049h10.24v-30H40.413v-6c0-2.063-1.716-3.75-3.813-3.75-.986 0-1.867.396-2.547 1.002A3.786 3.786 0 0030.5 3zm0 1.5c1.272 0 2.288.999 2.288 2.25v1.5h1.525C34.313 6.999 35.328 6 36.6 6s2.288.999 2.288 2.25v6h-4.575a.758.758 0 00-.763-.75.758.758 0 00-.762.75h-4.575a.758.758 0 00-.763-.75.758.758 0 00-.762.75h-9.913v-1.875c0-1.043.846-1.875 1.906-1.875s1.906.832 1.906 1.875h1.526V8.25C22.113 6.999 23.128 6 24.4 6s2.288.999 2.288 2.25c0 .413.342.75.762.75s.762-.337.762-.75v-1.5c0-1.251 1.016-2.25 2.288-2.25zm-3.05 6a.758.758 0 00-.762.75c0 .413.342.75.762.75s.762-.337.762-.75a.758.758 0 00-.762-.75zm6.1 0a.758.758 0 00-.762.75c0 .413.342.75.762.75s.763-.337.763-.75a.758.758 0 00-.763-.75zM5.338 15.75h50.325v27h-7.5a4091.13 4091.13 0 005.048-6.284l.286-.36-.19-.414S51.971 33 48.602 33c-5.57 0-7.756 4.207-8.024 4.764l-5.826 4.986H5.337v-27zm6.862 1.5a.758.758 0 00-.762.75c0 .413.342.75.762.75s.763-.337.763-.75a.758.758 0 00-.763-.75zm2.288 0a.758.758 0 00-.763.75c0 .413.343.75.763.75s.762-.337.762-.75a.758.758 0 00-.762-.75zm2.287 0a.758.758 0 00-.762.75c0 .413.342.75.762.75s.763-.337.763-.75a.758.758 0 00-.763-.75zm2.288 0a.758.758 0 00-.763.75c0 .413.342.75.762.75s.763-.337.763-.75a.758.758 0 00-.762-.75zm2.287 0a.758.758 0 00-.763.75c0 .413.343.75.763.75s.762-.337.762-.75a.758.758 0 00-.762-.75zm2.287 0a.758.758 0 00-.762.75c0 .413.343.75.762.75.42 0 .763-.337.763-.75a.758.758 0 00-.762-.75zm2.288 0a.758.758 0 00-.762.75c0 .413.342.75.762.75s.762-.337.762-.75a.758.758 0 00-.762-.75zm2.287 0a.758.758 0 00-.762.75c0 .413.343.75.762.75.42 0 .763-.337.763-.75a.758.758 0 00-.763-.75zm2.288 0a.758.758 0 00-.762.75c0 .413.342.75.762.75s.762-.337.762-.75a.758.758 0 00-.762-.75zm2.288 0a.758.758 0 00-.763.75c0 .413.343.75.763.75s.762-.337.762-.75a.758.758 0 00-.762-.75zm2.287 0a.758.758 0 00-.763.75c0 .413.343.75.763.75s.762-.337.762-.75a.758.758 0 00-.762-.75zm2.287 0a.758.758 0 00-.762.75c0 .413.343.75.762.75.42 0 .763-.337.763-.75a.758.758 0 00-.763-.75zm2.288 0a.758.758 0 00-.762.75c0 .413.342.75.762.75s.763-.337.763-.75a.758.758 0 00-.763-.75zm2.288 0a.758.758 0 00-.763.75c0 .413.343.75.763.75s.762-.337.762-.75a.758.758 0 00-.763-.75zm2.287 0a.758.758 0 00-.763.75c0 .413.343.75.763.75s.762-.337.762-.75a.758.758 0 00-.762-.75zm2.288 0a.758.758 0 00-.763.75c0 .413.343.75.763.75s.762-.337.762-.75a.758.758 0 00-.762-.75zm2.287 0a.758.758 0 00-.762.75c0 .413.342.75.762.75s.763-.337.763-.75a.758.758 0 00-.763-.75zM11.438 19.5a.758.758 0 00-.763.75c0 .413.342.75.762.75s.763-.337.763-.75a.758.758 0 00-.762-.75zm38.124 0a.758.758 0 00-.762.75c0 .413.343.75.763.75s.762-.337.762-.75a.758.758 0 00-.763-.75zM9.913 21a.758.758 0 00-.762.75c0 .413.343.75.762.75.42 0 .763-.337.763-.75a.758.758 0 00-.763-.75zM30.5 21c-4.623 0-8.387 3.703-8.387 8.25 0 4.547 3.764 8.25 8.387 8.25 4.623 0 8.388-3.703 8.388-8.25 0-4.547-3.765-8.25-8.388-8.25zm20.587 0a.758.758 0 00-.762.75c0 .413.342.75.762.75s.763-.337.763-.75a.758.758 0 00-.763-.75zm-43.462.75a.758.758 0 00-.763.75c0 .413.343.75.763.75s.762-.337.762-.75a.758.758 0 00-.762-.75zm45.75 0a.758.758 0 00-.763.75c0 .413.343.75.763.75s.763-.337.763-.75a.758.758 0 00-.763-.75zM30.5 22.5c3.798 0 6.862 3.015 6.862 6.75S34.298 36 30.5 36s-6.863-3.015-6.863-6.75 3.065-6.75 6.863-6.75zM7.625 24a.758.758 0 00-.763.75c0 .413.343.75.763.75s.762-.337.762-.75a.758.758 0 00-.762-.75zm45.75 0a.758.758 0 00-.763.75c0 .413.343.75.763.75s.763-.337.763-.75a.758.758 0 00-.763-.75zm-45.75 2.25a.758.758 0 00-.763.75c0 .413.343.75.763.75s.762-.337.762-.75a.758.758 0 00-.762-.75zm6.863 0c-1.677 0-3.05 1.35-3.05 3s1.373 3 3.05 3c1.676 0 3.05-1.35 3.05-3s-1.374-3-3.05-3zm31.262 0c-1.677 0-3.05 1.35-3.05 3s1.373 3 3.05 3c1.677 0 3.05-1.35 3.05-3s-1.373-3-3.05-3zm7.625 0a.758.758 0 00-.763.75c0 .413.343.75.763.75s.763-.337.763-.75a.758.758 0 00-.763-.75zm-38.888 1.5c.852 0 1.525.662 1.525 1.5s-.673 1.5-1.524 1.5c-.852 0-1.525-.662-1.525-1.5s.673-1.5 1.525-1.5zm31.263 0c.852 0 1.525.662 1.525 1.5s-.673 1.5-1.525 1.5c-.852 0-1.525-.662-1.525-1.5s.673-1.5 1.525-1.5zm-38.125.75a.758.758 0 00-.763.75c0 .413.343.75.763.75s.762-.337.762-.75a.758.758 0 00-.762-.75zm45.75 0a.758.758 0 00-.763.75c0 .413.343.75.763.75s.763-.337.763-.75a.758.758 0 00-.763-.75zm-45.75 2.25a.758.758 0 00-.763.75c0 .413.343.75.763.75s.762-.337.762-.75a.758.758 0 00-.762-.75zm45.75 0a.758.758 0 00-.763.75c0 .413.343.75.763.75s.763-.337.763-.75a.758.758 0 00-.763-.75zM7.625 33a.758.758 0 00-.763.75c0 .413.343.75.763.75s.762-.337.762-.75a.758.758 0 00-.762-.75zm0 2.25a.758.758 0 00-.763.75c0 .413.343.75.763.75s.762-.337.762-.75a.758.758 0 00-.762-.75zm2.287.75a.758.758 0 00-.762.75c0 .413.343.75.762.75.42 0 .763-.337.763-.75a.758.758 0 00-.763-.75zm1.525 1.5a.758.758 0 00-.762.75c0 .413.342.75.762.75s.763-.337.763-.75a.758.758 0 00-.762-.75zm.763 2.25a.758.758 0 00-.762.75c0 .413.342.75.762.75s.763-.337.763-.75a.758.758 0 00-.763-.75zm2.288 0a.758.758 0 00-.763.75c0 .413.343.75.763.75s.762-.337.762-.75a.758.758 0 00-.762-.75zm2.287 0a.758.758 0 00-.762.75c0 .413.342.75.762.75s.763-.337.763-.75a.758.758 0 00-.763-.75zm2.288 0a.758.758 0 00-.763.75c0 .413.342.75.762.75s.763-.337.763-.75a.758.758 0 00-.762-.75zm2.287 0a.758.758 0 00-.763.75c0 .413.343.75.763.75s.762-.337.762-.75a.758.758 0 00-.762-.75zm2.287 0a.758.758 0 00-.762.75c0 .413.343.75.762.75.42 0 .763-.337.763-.75a.758.758 0 00-.762-.75zm2.288 0a.758.758 0 00-.762.75c0 .413.342.75.762.75s.762-.337.762-.75a.758.758 0 00-.762-.75zm2.287 0a.758.758 0 00-.762.75c0 .413.343.75.762.75.42 0 .763-.337.763-.75a.758.758 0 00-.763-.75zm2.288 0a.758.758 0 00-.762.75c0 .413.342.75.762.75s.762-.337.762-.75a.758.758 0 00-.762-.75zm2.288 0a.758.758 0 00-.763.75c0 .413.343.75.763.75s.762-.337.762-.75a.758.758 0 00-.762-.75zm2.287 0a.758.758 0 00-.763.75c0 .413.343.75.763.75s.762-.337.762-.75a.758.758 0 00-.762-.75zm-12.2 9.75a.758.758 0 00-.762.75c0 .413.342.75.762.75s.762-.337.762-.75a.758.758 0 00-.762-.75zm3.05 0a.758.758 0 00-.762.75c0 .413.342.75.762.75s.762-.337.762-.75a.758.758 0 00-.762-.75z" fill="#fff"/><path d="M27.45 10.5a.758.758 0 00-.762.75c0 .413.342.75.762.75s.762-.337.762-.75a.758.758 0 00-.762-.75zm6.1 0a.758.758 0 00-.762.75c0 .413.342.75.762.75s.763-.337.763-.75a.758.758 0 00-.763-.75zM12.2 17.25a.758.758 0 00-.762.75c0 .413.342.75.762.75s.763-.337.763-.75a.758.758 0 00-.763-.75zm2.288 0a.758.758 0 00-.763.75c0 .413.343.75.763.75s.762-.337.762-.75a.758.758 0 00-.762-.75zm2.287 0a.758.758 0 00-.762.75c0 .413.342.75.762.75s.763-.337.763-.75a.758.758 0 00-.763-.75zm2.288 0a.758.758 0 00-.763.75c0 .413.342.75.762.75s.763-.337.763-.75a.758.758 0 00-.762-.75zm2.287 0a.758.758 0 00-.763.75c0 .413.343.75.763.75s.762-.337.762-.75a.758.758 0 00-.762-.75zm2.287 0a.758.758 0 00-.762.75c0 .413.343.75.762.75.42 0 .763-.337.763-.75a.758.758 0 00-.762-.75zm2.288 0a.758.758 0 00-.762.75c0 .413.342.75.762.75s.762-.337.762-.75a.758.758 0 00-.762-.75zm2.287 0a.758.758 0 00-.762.75c0 .413.343.75.762.75.42 0 .763-.337.763-.75a.758.758 0 00-.763-.75zm2.288 0a.758.758 0 00-.762.75c0 .413.342.75.762.75s.762-.337.762-.75a.758.758 0 00-.762-.75zm2.288 0a.758.758 0 00-.763.75c0 .413.343.75.763.75s.762-.337.762-.75a.758.758 0 00-.762-.75zm2.287 0a.758.758 0 00-.763.75c0 .413.343.75.763.75s.762-.337.762-.75a.758.758 0 00-.762-.75zm2.287 0a.758.758 0 00-.762.75c0 .413.343.75.762.75.42 0 .763-.337.763-.75a.758.758 0 00-.763-.75zm2.288 0a.758.758 0 00-.762.75c0 .413.342.75.762.75s.763-.337.763-.75a.758.758 0 00-.763-.75zm2.288 0a.758.758 0 00-.763.75c0 .413.343.75.763.75s.762-.337.762-.75a.758.758 0 00-.763-.75zm2.287 0a.758.758 0 00-.763.75c0 .413.343.75.763.75s.762-.337.762-.75a.758.758 0 00-.762-.75zm2.288 0a.758.758 0 00-.763.75c0 .413.343.75.763.75s.762-.337.762-.75a.758.758 0 00-.762-.75zm2.287 0a.758.758 0 00-.762.75c0 .413.342.75.762.75s.763-.337.763-.75a.758.758 0 00-.763-.75zM11.438 19.5a.758.758 0 00-.763.75c0 .413.342.75.762.75s.763-.337.763-.75a.758.758 0 00-.762-.75zm38.124 0a.758.758 0 00-.762.75c0 .413.343.75.763.75s.762-.337.762-.75a.758.758 0 00-.763-.75zM9.913 21a.758.758 0 00-.762.75c0 .413.343.75.762.75.42 0 .763-.337.763-.75a.758.758 0 00-.763-.75zM30.5 21c-4.623 0-8.387 3.703-8.387 8.25 0 4.547 3.764 8.25 8.387 8.25 4.623 0 8.388-3.703 8.388-8.25 0-4.547-3.765-8.25-8.388-8.25zm20.587 0a.758.758 0 00-.762.75c0 .413.342.75.762.75s.763-.337.763-.75a.758.758 0 00-.763-.75zm-43.462.75a.758.758 0 00-.763.75c0 .413.343.75.763.75s.762-.337.762-.75a.758.758 0 00-.762-.75zm45.75 0a.758.758 0 00-.763.75c0 .413.343.75.763.75s.763-.337.763-.75a.758.758 0 00-.763-.75zM30.5 22.5c3.798 0 6.862 3.015 6.862 6.75S34.298 36 30.5 36s-6.863-3.015-6.863-6.75 3.065-6.75 6.863-6.75zM7.625 24a.758.758 0 00-.763.75c0 .413.343.75.763.75s.762-.337.762-.75a.758.758 0 00-.762-.75zm45.75 0a.758.758 0 00-.763.75c0 .413.343.75.763.75s.763-.337.763-.75a.758.758 0 00-.763-.75zm-45.75 2.25a.758.758 0 00-.763.75c0 .413.343.75.763.75s.762-.337.762-.75a.758.758 0 00-.762-.75zm6.863 0c-1.677 0-3.05 1.35-3.05 3s1.373 3 3.05 3c1.676 0 3.05-1.35 3.05-3s-1.374-3-3.05-3zm31.262 0c-1.677 0-3.05 1.35-3.05 3s1.373 3 3.05 3c1.677 0 3.05-1.35 3.05-3s-1.373-3-3.05-3zm7.625 0a.758.758 0 00-.763.75c0 .413.343.75.763.75s.763-.337.763-.75a.758.758 0 00-.763-.75zm-38.888 1.5c.852 0 1.525.662 1.525 1.5s-.673 1.5-1.524 1.5c-.852 0-1.525-.662-1.525-1.5s.673-1.5 1.525-1.5zm31.263 0c.852 0 1.525.662 1.525 1.5s-.673 1.5-1.525 1.5c-.852 0-1.525-.662-1.525-1.5s.673-1.5 1.525-1.5zm-38.125.75a.758.758 0 00-.763.75c0 .413.343.75.763.75s.762-.337.762-.75a.758.758 0 00-.762-.75zm45.75 0a.758.758 0 00-.763.75c0 .413.343.75.763.75s.763-.337.763-.75a.758.758 0 00-.763-.75zm-45.75 2.25a.758.758 0 00-.763.75c0 .413.343.75.763.75s.762-.337.762-.75a.758.758 0 00-.762-.75zm45.75 0a.758.758 0 00-.763.75c0 .413.343.75.763.75s.763-.337.763-.75a.758.758 0 00-.763-.75zM7.625 33a.758.758 0 00-.763.75c0 .413.343.75.763.75s.762-.337.762-.75a.758.758 0 00-.762-.75zm0 2.25a.758.758 0 00-.763.75c0 .413.343.75.763.75s.762-.337.762-.75a.758.758 0 00-.762-.75zm2.287.75a.758.758 0 00-.762.75c0 .413.343.75.762.75.42 0 .763-.337.763-.75a.758.758 0 00-.763-.75zm1.525 1.5a.758.758 0 00-.762.75c0 .413.342.75.762.75s.763-.337.763-.75a.758.758 0 00-.762-.75zm.763 2.25a.758.758 0 00-.762.75c0 .413.342.75.762.75s.763-.337.763-.75a.758.758 0 00-.763-.75zm2.288 0a.758.758 0 00-.763.75c0 .413.343.75.763.75s.762-.337.762-.75a.758.758 0 00-.762-.75zm2.287 0a.758.758 0 00-.762.75c0 .413.342.75.762.75s.763-.337.763-.75a.758.758 0 00-.763-.75zm2.288 0a.758.758 0 00-.763.75c0 .413.342.75.762.75s.763-.337.763-.75a.758.758 0 00-.762-.75zm2.287 0a.758.758 0 00-.763.75c0 .413.343.75.763.75s.762-.337.762-.75a.758.758 0 00-.762-.75zm2.287 0a.758.758 0 00-.762.75c0 .413.343.75.762.75.42 0 .763-.337.763-.75a.758.758 0 00-.762-.75zm2.288 0a.758.758 0 00-.762.75c0 .413.342.75.762.75s.762-.337.762-.75a.758.758 0 00-.762-.75zm2.287 0a.758.758 0 00-.762.75c0 .413.343.75.762.75.42 0 .763-.337.763-.75a.758.758 0 00-.763-.75zm2.288 0a.758.758 0 00-.762.75c0 .413.342.75.762.75s.762-.337.762-.75a.758.758 0 00-.762-.75zm2.288 0a.758.758 0 00-.763.75c0 .413.343.75.763.75s.762-.337.762-.75a.758.758 0 00-.762-.75zm2.287 0a.758.758 0 00-.763.75c0 .413.343.75.763.75s.762-.337.762-.75a.758.758 0 00-.762-.75zm-12.2 9.75a.758.758 0 00-.762.75c0 .413.342.75.762.75s.762-.337.762-.75a.758.758 0 00-.762-.75zm3.05 0a.758.758 0 00-.762.75c0 .413.342.75.762.75s.762-.337.762-.75a.758.758 0 00-.762-.75z" fill="#BD9457"/></svg><svg fill="none" viewBox="0 0 60 59" id="chat" xmlns="http://www.w3.org/2000/svg"><path d="M22.5 5.163c-9.065 0-16.5 6.57-16.5 14.75 0 4.255 2.068 8.043 5.273 10.725a9.062 9.062 0 01-1.649 2.512c-.32.349-.624.654-.882.994-.258.337-.492.752-.492 1.256v.738H9c2.566 0 5.37-1.23 7.67-2.458 1.474.499 3.04.821 4.679.93A13.227 13.227 0 0021 37.613c0 8.178 7.436 14.75 16.5 14.75 2.06 0 4.014-.37 5.83-.983 2.3 1.227 5.104 2.458 7.67 2.458h.75V53.1c0-.504-.234-.919-.492-1.256-.258-.34-.563-.645-.882-.994a9.061 9.061 0 01-1.65-2.512C51.933 45.656 54 41.868 54 37.613c0-7.83-6.815-14.189-15.352-14.716.223-.962.352-1.959.352-2.984 0-8.18-7.436-14.75-16.5-14.75zm0 1.475c8.332 0 15 5.977 15 13.275 0 7.297-6.668 13.275-15 13.275-1.998 0-3.896-.355-5.64-.98l-.325-.115-.296.161c-1.76.957-3.814 1.723-5.68 2.083.07-.078.102-.118.178-.202.68-.74 1.559-1.791 2.154-3.399l.184-.501-.427-.329C9.483 27.46 7.5 23.896 7.5 19.913c0-7.298 6.668-13.275 15-13.275zm15.715 17.726a16.58 16.58 0 015.367 1.111.745.745 0 00-.082.338c0 .406.337.737.75.737a.747.747 0 00.694-.46c2.578 1.304 4.658 3.269 5.983 5.625a.743.743 0 00-.677.735c0 .406.337.738.75.738a.77.77 0 00.54-.222c.611 1.449.96 3.01.96 4.647 0 3.984-1.983 7.547-5.148 9.993l-.427.329.184.501c.595 1.608 1.474 2.659 2.154 3.4.076.083.108.123.178.201-1.866-.36-3.92-1.126-5.68-2.083l-.296-.161-.325.115c-.13.046-.267.08-.402.124a.745.745 0 00-.738-.62.745.745 0 00-.75.738c0 .098.02.196.059.285a16.657 16.657 0 01-3.809.453c.413 0 .75-.332.75-.738a.745.745 0 00-.75-.737.745.745 0 00-.75.737c0 .383.296.7.683.735a16.783 16.783 0 01-3.745-.447.689.689 0 00.062-.288.745.745 0 00-.75-.737.746.746 0 00-.741.628c-5.716-1.887-9.759-6.75-9.759-12.428 0-1.02.138-2.008.384-2.959.908-.02 1.799-.104 2.663-.248a.751.751 0 00-.047.257c0 .406.337.737.75.737s.75-.331.75-.737a.728.728 0 00-.208-.507c3.012-.732 5.69-2.213 7.767-4.2a.716.716 0 00-.059.282c0 .406.337.737.75.737s.75-.331.75-.737a.745.745 0 00-1.037-.68 14.437 14.437 0 003.252-5.195zm1.535.711a.745.745 0 00-.75.738c0 .406.337.737.75.737s.75-.331.75-.737a.745.745 0 00-.75-.738zm-2.25 2.213a.745.745 0 00-.75.737c0 .406.337.738.75.738s.75-.332.75-.738a.745.745 0 00-.75-.737zm4.5 0a.745.745 0 00-.75.737c0 .406.337.738.75.738s.75-.332.75-.738a.745.745 0 00-.75-.737zm4.5 0a.745.745 0 00-.75.737c0 .406.337.738.75.738s.75-.332.75-.738a.745.745 0 00-.75-.737zM39.75 29.5a.745.745 0 00-.75.738c0 .406.337.737.75.737s.75-.331.75-.737a.745.745 0 00-.75-.738zm4.5 0a.745.745 0 00-.75.738c0 .406.337.737.75.737s.75-.331.75-.737a.745.745 0 00-.75-.738zm4.5 0a.745.745 0 00-.75.738c0 .406.337.737.75.737s.75-.331.75-.737a.745.745 0 00-.75-.738zM33 31.713a.745.745 0 00-.75.737c0 .406.337.738.75.738s.75-.332.75-.738a.745.745 0 00-.75-.737zm4.5 0a.745.745 0 00-.75.737c0 .406.337.738.75.738s.75-.332.75-.738a.745.745 0 00-.75-.737zm4.5 0a.745.745 0 00-.75.737c0 .406.337.738.75.738s.75-.332.75-.738a.745.745 0 00-.75-.737zm4.5 0a.745.745 0 00-.75.737c0 .406.337.738.75.738s.75-.332.75-.738a.745.745 0 00-.75-.737zm-15.75 2.212a.745.745 0 00-.75.738c0 .406.337.737.75.737s.75-.331.75-.737a.745.745 0 00-.75-.738zm4.5 0a.745.745 0 00-.75.738c0 .406.337.737.75.737s.75-.331.75-.737a.745.745 0 00-.75-.738zm4.5 0a.745.745 0 00-.75.738c0 .406.337.737.75.737s.75-.331.75-.737a.745.745 0 00-.75-.738zm4.5 0a.745.745 0 00-.75.738c0 .406.337.737.75.737s.75-.331.75-.737a.745.745 0 00-.75-.738zm4.5 0a.745.745 0 00-.75.738c0 .406.337.737.75.737s.75-.331.75-.737a.745.745 0 00-.75-.738zM24 36.138a.745.745 0 00-.75.737c0 .406.337.738.75.738s.75-.332.75-.738a.745.745 0 00-.75-.737zm4.5 0a.745.745 0 00-.75.737c0 .406.337.738.75.738s.75-.332.75-.738a.745.745 0 00-.75-.737zm4.5 0a.745.745 0 00-.75.737c0 .406.337.738.75.738s.75-.332.75-.738a.745.745 0 00-.75-.737zm4.5 0a.745.745 0 00-.75.737c0 .406.337.738.75.738s.75-.332.75-.738a.745.745 0 00-.75-.737zm4.5 0a.745.745 0 00-.75.737c0 .406.337.738.75.738s.75-.332.75-.738a.745.745 0 00-.75-.737zm4.5 0a.745.745 0 00-.75.737c0 .406.337.738.75.738s.75-.332.75-.738a.745.745 0 00-.75-.737zm4.5 0a.745.745 0 00-.75.737c0 .406.337.738.75.738s.75-.332.75-.738a.745.745 0 00-.75-.737zM26.25 38.35a.745.745 0 00-.75.738c0 .406.337.737.75.737s.75-.331.75-.737a.745.745 0 00-.75-.738zm4.5 0a.745.745 0 00-.75.738c0 .406.337.737.75.737s.75-.331.75-.737a.745.745 0 00-.75-.738zm4.5 0a.745.745 0 00-.75.738c0 .406.337.737.75.737s.75-.331.75-.737a.745.745 0 00-.75-.738zm4.5 0a.745.745 0 00-.75.738c0 .406.337.737.75.737s.75-.331.75-.737a.745.745 0 00-.75-.738zm4.5 0a.745.745 0 00-.75.738c0 .406.337.737.75.737s.75-.331.75-.737a.745.745 0 00-.75-.738zm4.5 0a.745.745 0 00-.75.738c0 .406.337.737.75.737s.75-.331.75-.737a.745.745 0 00-.75-.738zM24 40.563a.745.745 0 00-.75.737c0 .406.337.738.75.738s.75-.332.75-.738a.745.745 0 00-.75-.737zm4.5 0a.745.745 0 00-.75.737c0 .406.337.738.75.738s.75-.332.75-.738a.745.745 0 00-.75-.737zm4.5 0a.745.745 0 00-.75.737c0 .406.337.738.75.738s.75-.332.75-.738a.745.745 0 00-.75-.737zm4.5 0a.745.745 0 00-.75.737c0 .406.337.738.75.738s.75-.332.75-.738a.745.745 0 00-.75-.737zm4.5 0a.745.745 0 00-.75.737c0 .406.337.738.75.738s.75-.332.75-.738a.745.745 0 00-.75-.737zm4.5 0a.745.745 0 00-.75.737c0 .406.337.738.75.738s.75-.332.75-.738a.745.745 0 00-.75-.737zm4.5 0a.745.745 0 00-.75.737c0 .406.337.738.75.738s.75-.332.75-.738a.745.745 0 00-.75-.737zm-24.75 2.212a.745.745 0 00-.75.738c0 .406.337.737.75.737s.75-.331.75-.737a.745.745 0 00-.75-.738zm4.5 0a.745.745 0 00-.75.738c0 .406.337.737.75.737s.75-.331.75-.737a.745.745 0 00-.75-.738zm4.5 0a.745.745 0 00-.75.738c0 .406.337.737.75.737s.75-.331.75-.737a.745.745 0 00-.75-.738zm4.5 0a.745.745 0 00-.75.738c0 .406.337.737.75.737s.75-.331.75-.737a.745.745 0 00-.75-.738zm4.5 0a.745.745 0 00-.75.738c0 .406.337.737.75.737s.75-.331.75-.737a.745.745 0 00-.75-.738zm4.5 0a.745.745 0 00-.75.738c0 .406.337.737.75.737s.75-.331.75-.737a.745.745 0 00-.75-.738zM28.5 44.988a.745.745 0 00-.75.737c0 .406.337.738.75.738s.75-.332.75-.738a.745.745 0 00-.75-.737zm4.5 0a.745.745 0 00-.75.737c0 .406.337.738.75.738s.75-.332.75-.738a.745.745 0 00-.75-.737zm4.5 0a.745.745 0 00-.75.737c0 .406.337.738.75.738s.75-.332.75-.738a.745.745 0 00-.75-.737zm4.5 0a.745.745 0 00-.75.737c0 .406.337.738.75.738s.75-.332.75-.738a.745.745 0 00-.75-.737zm4.5 0a.745.745 0 00-.75.737c0 .406.337.738.75.738s.75-.332.75-.738a.745.745 0 00-.75-.737zM30.75 47.2a.745.745 0 00-.75.738c0 .406.337.737.75.737s.75-.331.75-.737a.745.745 0 00-.75-.738zm4.5 0a.745.745 0 00-.75.738c0 .406.337.737.75.737s.75-.331.75-.737a.745.745 0 00-.75-.738zm4.5 0a.745.745 0 00-.75.738c0 .406.337.737.75.737s.75-.331.75-.737a.745.745 0 00-.75-.738zm4.5 0a.745.745 0 00-.75.738c0 .406.337.737.75.737s.75-.331.75-.737a.745.745 0 00-.75-.738zm2.25 2.213a.745.745 0 00-.75.737c0 .406.337.738.75.738s.75-.332.75-.738a.745.745 0 00-.75-.737z" fill="#fff"/><path d="M39.75 25.075a.745.745 0 00-.75.738c0 .406.337.737.75.737s.75-.331.75-.737a.745.745 0 00-.75-.738zm-2.25 2.213a.745.745 0 00-.75.737c0 .406.337.738.75.738s.75-.332.75-.738a.745.745 0 00-.75-.737zm4.5 0a.745.745 0 00-.75.737c0 .406.337.738.75.738s.75-.332.75-.738a.745.745 0 00-.75-.737zm4.5 0a.745.745 0 00-.75.737c0 .406.337.738.75.738s.75-.332.75-.738a.745.745 0 00-.75-.737zM39.75 29.5a.745.745 0 00-.75.738c0 .406.337.737.75.737s.75-.331.75-.737a.745.745 0 00-.75-.738zm4.5 0a.745.745 0 00-.75.738c0 .406.337.737.75.737s.75-.331.75-.737a.745.745 0 00-.75-.738zm4.5 0a.745.745 0 00-.75.738c0 .406.337.737.75.737s.75-.331.75-.737a.745.745 0 00-.75-.738zM33 31.713a.745.745 0 00-.75.737c0 .406.337.738.75.738s.75-.332.75-.738a.745.745 0 00-.75-.737zm4.5 0a.745.745 0 00-.75.737c0 .406.337.738.75.738s.75-.332.75-.738a.745.745 0 00-.75-.737zm4.5 0a.745.745 0 00-.75.737c0 .406.337.738.75.738s.75-.332.75-.738a.745.745 0 00-.75-.737zm4.5 0a.745.745 0 00-.75.737c0 .406.337.738.75.738s.75-.332.75-.738a.745.745 0 00-.75-.737zm-15.75 2.212a.745.745 0 00-.75.738c0 .406.337.737.75.737s.75-.331.75-.737a.745.745 0 00-.75-.738zm4.5 0a.745.745 0 00-.75.738c0 .406.337.737.75.737s.75-.331.75-.737a.745.745 0 00-.75-.738zm4.5 0a.745.745 0 00-.75.738c0 .406.337.737.75.737s.75-.331.75-.737a.745.745 0 00-.75-.738zm4.5 0a.745.745 0 00-.75.738c0 .406.337.737.75.737s.75-.331.75-.737a.745.745 0 00-.75-.738zm4.5 0a.745.745 0 00-.75.738c0 .406.337.737.75.737s.75-.331.75-.737a.745.745 0 00-.75-.738zM24 36.138a.745.745 0 00-.75.737c0 .406.337.738.75.738s.75-.332.75-.738a.745.745 0 00-.75-.737zm4.5 0a.745.745 0 00-.75.737c0 .406.337.738.75.738s.75-.332.75-.738a.745.745 0 00-.75-.737zm4.5 0a.745.745 0 00-.75.737c0 .406.337.738.75.738s.75-.332.75-.738a.745.745 0 00-.75-.737zm4.5 0a.745.745 0 00-.75.737c0 .406.337.738.75.738s.75-.332.75-.738a.745.745 0 00-.75-.737zm4.5 0a.745.745 0 00-.75.737c0 .406.337.738.75.738s.75-.332.75-.738a.745.745 0 00-.75-.737zm4.5 0a.745.745 0 00-.75.737c0 .406.337.738.75.738s.75-.332.75-.738a.745.745 0 00-.75-.737zm4.5 0a.745.745 0 00-.75.737c0 .406.337.738.75.738s.75-.332.75-.738a.745.745 0 00-.75-.737zM26.25 38.35a.745.745 0 00-.75.738c0 .406.337.737.75.737s.75-.331.75-.737a.745.745 0 00-.75-.738zm4.5 0a.745.745 0 00-.75.738c0 .406.337.737.75.737s.75-.331.75-.737a.745.745 0 00-.75-.738zm4.5 0a.745.745 0 00-.75.738c0 .406.337.737.75.737s.75-.331.75-.737a.745.745 0 00-.75-.738zm4.5 0a.745.745 0 00-.75.738c0 .406.337.737.75.737s.75-.331.75-.737a.745.745 0 00-.75-.738zm4.5 0a.745.745 0 00-.75.738c0 .406.337.737.75.737s.75-.331.75-.737a.745.745 0 00-.75-.738zm4.5 0a.745.745 0 00-.75.738c0 .406.337.737.75.737s.75-.331.75-.737a.745.745 0 00-.75-.738zM24 40.563a.745.745 0 00-.75.737c0 .406.337.738.75.738s.75-.332.75-.738a.745.745 0 00-.75-.737zm4.5 0a.745.745 0 00-.75.737c0 .406.337.738.75.738s.75-.332.75-.738a.745.745 0 00-.75-.737zm4.5 0a.745.745 0 00-.75.737c0 .406.337.738.75.738s.75-.332.75-.738a.745.745 0 00-.75-.737zm4.5 0a.745.745 0 00-.75.737c0 .406.337.738.75.738s.75-.332.75-.738a.745.745 0 00-.75-.737zm4.5 0a.745.745 0 00-.75.737c0 .406.337.738.75.738s.75-.332.75-.738a.745.745 0 00-.75-.737zm4.5 0a.745.745 0 00-.75.737c0 .406.337.738.75.738s.75-.332.75-.738a.745.745 0 00-.75-.737zm4.5 0a.745.745 0 00-.75.737c0 .406.337.738.75.738s.75-.332.75-.738a.745.745 0 00-.75-.737zm-24.75 2.212a.745.745 0 00-.75.738c0 .406.337.737.75.737s.75-.331.75-.737a.745.745 0 00-.75-.738zm4.5 0a.745.745 0 00-.75.738c0 .406.337.737.75.737s.75-.331.75-.737a.745.745 0 00-.75-.738zm4.5 0a.745.745 0 00-.75.738c0 .406.337.737.75.737s.75-.331.75-.737a.745.745 0 00-.75-.738zm4.5 0a.745.745 0 00-.75.738c0 .406.337.737.75.737s.75-.331.75-.737a.745.745 0 00-.75-.738zm4.5 0a.745.745 0 00-.75.738c0 .406.337.737.75.737s.75-.331.75-.737a.745.745 0 00-.75-.738zm4.5 0a.745.745 0 00-.75.738c0 .406.337.737.75.737s.75-.331.75-.737a.745.745 0 00-.75-.738zM28.5 44.988a.745.745 0 00-.75.737c0 .406.337.738.75.738s.75-.332.75-.738a.745.745 0 00-.75-.737zm4.5 0a.745.745 0 00-.75.737c0 .406.337.738.75.738s.75-.332.75-.738a.745.745 0 00-.75-.737zm4.5 0a.745.745 0 00-.75.737c0 .406.337.738.75.738s.75-.332.75-.738a.745.745 0 00-.75-.737zm4.5 0a.745.745 0 00-.75.737c0 .406.337.738.75.738s.75-.332.75-.738a.745.745 0 00-.75-.737zm4.5 0a.745.745 0 00-.75.737c0 .406.337.738.75.738s.75-.332.75-.738a.745.745 0 00-.75-.737zM30.75 47.2a.745.745 0 00-.75.738c0 .406.337.737.75.737s.75-.331.75-.737a.745.745 0 00-.75-.738zm4.5 0a.745.745 0 00-.75.738c0 .406.337.737.75.737s.75-.331.75-.737a.745.745 0 00-.75-.738zm4.5 0a.745.745 0 00-.75.738c0 .406.337.737.75.737s.75-.331.75-.737a.745.745 0 00-.75-.738zm4.5 0a.745.745 0 00-.75.738c0 .406.337.737.75.737s.75-.331.75-.737a.745.745 0 00-.75-.738zm2.25 2.213a.745.745 0 00-.75.737c0 .406.337.738.75.738s.75-.332.75-.738a.745.745 0 00-.75-.737z" fill="#BD9457"/></svg><svg fill="none" viewBox="0 0 64 64" id="chat2" xmlns="http://www.w3.org/2000/svg"><path d="M5 6C3.348 6 2 7.348 2 9v32c0 1.652 1.348 3 3 3h7.145c.062 1.07-.114 3.336-2.004 6.484a1.003 1.003 0 001.078 1.492C18.94 50.263 21.816 45.739 22.656 44H30v5c0 1.652 1.348 3 3 3h12.234c.602 1.84 2.63 6.133 8.625 6.988a1.002 1.002 0 001.07-1.36c-1.202-3.003-1.238-4.8-1.148-5.628H59c1.652 0 3-1.348 3-3V27c0-1.652-1.348-3-3-3h-5V9c0-1.652-1.348-3-3-3H5zm0 2h46c.55 0 1 .45 1 1v32c0 .55-.45 1-1 1H22a1 1 0 00-.95.684c-.015.05-1.577 4.52-8.097 6.738 1.828-4.106 1.035-6.617.996-6.738A1 1 0 0013 42H5c-.55 0-1-.45-1-1V9c0-.55.45-1 1-1zm8 12a1 1 0 100 2h18a1 1 0 100-2H13zm22 0a1 1 0 100 2h4a1 1 0 100-2h-4zm-22 6a1 1 0 100 2h22a1 1 0 100-2H13zm41 0h5c.55 0 1 .45 1 1v22c0 .55-.45 1-1 1h-6c-.379 0-.723.215-.895.55-.109.22-.914 2.04.344 6.079-4.648-1.465-5.43-5.602-5.465-5.793A.999.999 0 0046 50H33c-.55 0-1-.45-1-1v-5h19c1.652 0 3-1.348 3-3V26zM8 36a1 1 0 00-1 1v2a1 1 0 102 0v-2a1 1 0 00-1-1zm5 0a1 1 0 00-1 1v2a1 1 0 102 0v-2a1 1 0 00-1-1zm5 0a1 1 0 00-1 1v2a1 1 0 102 0v-2a1 1 0 00-1-1zm5 0a1 1 0 00-1 1v2a1 1 0 102 0v-2a1 1 0 00-1-1zm5 0a1 1 0 00-1 1v2a1 1 0 102 0v-2a1 1 0 00-1-1zm5 0a1 1 0 00-1 1v2a1 1 0 102 0v-2a1 1 0 00-1-1zm5 0a1 1 0 00-1 1v2a1 1 0 102 0v-2a1 1 0 00-1-1zm5 0a1 1 0 00-1 1v2a1 1 0 102 0v-2a1 1 0 00-1-1zm5 0a1 1 0 00-1 1v2a1 1 0 102 0v-2a1 1 0 00-1-1z" fill="#000"/><path d="M13 20a1 1 0 100 2h18a1 1 0 100-2H13zm22 0a1 1 0 100 2h4a1 1 0 100-2h-4zm-22 6a1 1 0 100 2h22a1 1 0 100-2H13zM8 36a1 1 0 00-1 1v2a1 1 0 102 0v-2a1 1 0 00-1-1zm5 0a1 1 0 00-1 1v2a1 1 0 102 0v-2a1 1 0 00-1-1zm5 0a1 1 0 00-1 1v2a1 1 0 102 0v-2a1 1 0 00-1-1zm5 0a1 1 0 00-1 1v2a1 1 0 102 0v-2a1 1 0 00-1-1zm5 0a1 1 0 00-1 1v2a1 1 0 102 0v-2a1 1 0 00-1-1zm5 0a1 1 0 00-1 1v2a1 1 0 102 0v-2a1 1 0 00-1-1zm5 0a1 1 0 00-1 1v2a1 1 0 102 0v-2a1 1 0 00-1-1zm5 0a1 1 0 00-1 1v2a1 1 0 102 0v-2a1 1 0 00-1-1zm5 0a1 1 0 00-1 1v2a1 1 0 102 0v-2a1 1 0 00-1-1z" fill="#BD9457"/></svg><svg fill="none" viewBox="0 0 64 64" id="doctor" xmlns="http://www.w3.org/2000/svg"><path d="M32 5a1 1 0 00-1 1v3h-3a1 1 0 100 2h3v3a1 1 0 102 0v-3h3a1 1 0 100-2h-3V6a1 1 0 00-1-1zM7 54a1 1 0 00-1 1v2a1 1 0 102 0v-2a1 1 0 00-1-1zm5 0a1 1 0 00-1 1v2a1 1 0 102 0v-2a1 1 0 00-1-1zm5 0a1 1 0 00-1 1v2a1 1 0 102 0v-2a1 1 0 00-1-1zm5 0a1 1 0 00-1 1v2a1 1 0 102 0v-2a1 1 0 00-1-1zm20 0a1 1 0 00-1 1v2a1 1 0 102 0v-2a1 1 0 00-1-1zm5 0a1 1 0 00-1 1v2a1 1 0 102 0v-2a1 1 0 00-1-1zm5 0a1 1 0 00-1 1v2a1 1 0 102 0v-2a1 1 0 00-1-1zm5 0a1 1 0 00-1 1v2a1 1 0 102 0v-2a1 1 0 00-1-1z" fill="#BD9457"/></svg><svg fill="none" viewBox="0 0 10 10" id="expand-arrow" xmlns="http://www.w3.org/2000/svg"><path d="M8.895 7.396l.546-.625-4.166-3.75L5 2.773l-.273.248L.56 6.77l.547.625L5 3.892l3.894 3.503z" fill="#000"/></svg><svg fill="none" viewBox="0 0 64 64" id="fly" xmlns="http://www.w3.org/2000/svg"><path d="M12 30a1 1 0 00-1 1v2a1 1 0 102 0v-2a1 1 0 00-1-1zm5 0a1 1 0 00-1 1v2a1 1 0 102 0v-2a1 1 0 00-1-1zm5 0a1 1 0 00-1 1v2a1 1 0 102 0v-2a1 1 0 00-1-1zm5 0a1 1 0 00-1 1v2a1 1 0 102 0v-2a1 1 0 00-1-1zm5 0a1 1 0 00-1 1v2a1 1 0 102 0v-2a1 1 0 00-1-1zm5 0a1 1 0 00-1 1v2a1 1 0 102 0v-2a1 1 0 00-1-1zm5 0a1 1 0 00-1 1v2a1 1 0 102 0v-2a1 1 0 00-1-1zm5 0a1 1 0 00-1 1v2a1 1 0 102 0v-2a1 1 0 00-1-1zm5 0a1 1 0 00-1 1v2a1 1 0 102 0v-2a1 1 0 00-1-1z" fill="#BD9457"/></svg><svg fill="none" viewBox="0 0 18 18" id="geo" xmlns="http://www.w3.org/2000/svg"><path d="M8.998.36a5.768 5.768 0 00-5.76 5.76c0 5.081 5.267 11.14 5.49 11.397a.357.357 0 00.27.123.37.37 0 00.27-.123c.224-.26 5.49-6.424 5.49-11.397A5.768 5.768 0 008.998.36zm0 3.96a2.16 2.16 0 110 4.321 2.16 2.16 0 010-4.32z" fill="#BFAA86"/></svg><svg fill="none" viewBox="0 0 64 64" id="hotel" xmlns="http://www.w3.org/2000/svg"><path d="M19 23a1 1 0 000 2h2a1 1 0 000-2h-2zm8 0a1 1 0 000 2h2a1 1 0 000-2h-2zm8 0a1 1 0 000 2h2a1 1 0 000-2h-2zm8 0a1 1 0 000 2h2a1 1 0 000-2h-2zm-24 4a1 1 0 000 2h2a1 1 0 000-2h-2zm8 0a1 1 0 000 2h2a1 1 0 000-2h-2zm8 0a1 1 0 000 2h2a1 1 0 000-2h-2zm8 0a1 1 0 000 2h2a1 1 0 000-2h-2zm-24 4a1 1 0 000 2h2a1 1 0 000-2h-2zm8 0a1 1 0 000 2h2a1 1 0 000-2h-2zm8 0a1 1 0 000 2h2a1 1 0 000-2h-2zm8 0a1 1 0 000 2h2a1 1 0 000-2h-2zm1 5a1 1 0 000 2h4a1 1 0 000-2h-4zm-25 5a1 1 0 000 2h2a1 1 0 000-2h-2zm8 0a1 1 0 000 2h2a1 1 0 000-2h-2zm8 0a1 1 0 000 2h2a1 1 0 000-2h-2zm8 0a1 1 0 000 2h2a1 1 0 000-2h-2zm-24 4a1 1 0 000 2h2a1 1 0 000-2h-2zm8 0a1 1 0 000 2h2a1 1 0 000-2h-2zm8 0a1 1 0 000 2h2a1 1 0 000-2h-2zm8 0a1 1 0 000 2h2a1 1 0 000-2h-2zm-24 4a1 1 0 000 2h2a1 1 0 000-2h-2zm24 0a1 1 0 000 2h2a1 1 0 000-2h-2zm-24 4a1 1 0 000 2h2a1 1 0 000-2h-2zm24 0a1 1 0 000 2h2a1 1 0 000-2h-2z" fill="#BD9457"/></svg><svg fill="none" viewBox="0 0 18 18" id="mail" xmlns="http://www.w3.org/2000/svg"><path d="M0 2.52v1.001l7.796 6.795c.506.442 1.011.484 1.204.484.193 0 .697-.042 1.204-.484L18 3.521V2.52H0zm0 1.958v9.033l5.445-4.297L0 4.478zm18 0l-5.445 4.736L18 13.5V4.478zM5.996 9.698L0 14.422v1.058h18v-1.069l-5.996-4.713c-.698.607-1.2 1.047-1.328 1.158-.69.6-1.403.664-1.676.664-.273 0-.986-.062-1.676-.664-.127-.11-.629-.55-1.328-1.158z" fill="#BFAA86"/></svg><svg viewBox="0 0 32 32" id="phone" xmlns="http://www.w3.org/2000/svg"><path d="M22 20c-2 2-2 4-4 4s-4-2-6-4-4-4-4-6 2-2 4-4-4-8-6-8-6 6-6 6c0 4 4.109 12.109 8 16s12 8 16 8c0 0 6-4 6-6s-6-8-8-6z"/></svg><svg fill="none" viewBox="0 0 50 50" id="play" xmlns="http://www.w3.org/2000/svg"><path d="M25.006 2.002c-9.513 0-17.675 5.789-21.172 14.037a1 1 0 00-.066.135c-.084.202-.151.406-.229.61-.105.273-.216.544-.31.823a23.408 23.408 0 00-.47 1.551c-.007.031-.019.06-.027.092a1 1 0 001.938.5l.012-.043c.128-.495.28-.98.443-1.46.086-.255.187-.506.283-.759C8.431 9.608 16.05 4.002 25.006 4.002c11.608 0 20.998 9.39 20.998 20.998a1 1 0 102 0c0-12.69-10.309-22.998-22.998-22.998zM2.709 24.092l-.645.623-.056.348.015.94.002.03.002.027.092 1.249.002.029.004.027.164 1.239.004.027.006.027.23 1.225.006.027.008.027.246.993.584.681.895-.06.486-.752-.024-.352-.242-.972-.217-1.133-.001-.018-.157-1.19-.09-1.204-.002-.018-.013-.883-.414-.795-.885-.142zm3.344 10.863l-.844.307-.26.857.121.33.356.616.015.025.014.023.684 1.04.015.023.018.023.742 1.002.016.024.02.021.798.961.02.021.02.022.857.918.84.31.751-.486.06-.894-.19-.295-.846-.905-.012-.013-.746-.899-.691-.931-.653-.99-.006-.012-.351-.606-.748-.492zm34.336 4.756a1 1 0 00-.69.295c-.228.223-.46.44-.697.652a1 1 0 101.33 1.492c.26-.232.515-.47.766-.715a1 1 0 00-.71-1.724zm-26.58 3.26a1 1 0 00-.436 1.869c.89.52 1.827.989 2.807 1.396a.962.962 0 00.054.02c.306.127.614.248.922.36a1 1 0 10.68-1.882 19.873 19.873 0 01-.887-.345h-.002a21.26 21.26 0 01-2.564-1.276 1 1 0 00-.574-.142zm20.418.976l-.342.08-1.028.446-.013.005-.903.325-.617.65.15.883.8.408.345-.059.916-.33.03-.011.029-.012 1.084-.469.576-.687-.205-.871-.822-.358zm-8.325 2.022l-.498.029-1.554-.027v.021l-.788.309-.236.863.551.707.34.094.027.002.037.004h.037l1.61.027h.037l.037-.002.516-.03.777-.447.107-.888-.648-.62-.352-.042z" fill="#000"/><path d="M40.387 39.71a1 1 0 00-.69.296c-.227.223-.46.44-.697.652a1.002 1.002 0 00.212 1.674 1 1 0 001.118-.182c.261-.232.516-.47.766-.715a1 1 0 00-.709-1.724zM20.375 16.984v14.994l.866-.549 10.863-6.948-11.729-7.497zm1.125 2.053l8.521 5.444-8.521 5.44V19.038z" fill="#BD9457"/></svg><svg fill="none" viewBox="0 0 64 64" id="progress" xmlns="http://www.w3.org/2000/svg"><path d="M31.531 8.004a23.01 23.01 0 00-9.16 1.668 1 1 0 00.375 1.93c.125 0 .25-.024.375-.07a20.992 20.992 0 0111.219-1.266.997.997 0 001.144-.828 1.003 1.003 0 00-.828-1.149 22.83 22.83 0 00-3.125-.285zm7.13 1.383a.998.998 0 00-.895.648c-.192.52.07 1.094.586 1.29a20.8 20.8 0 012.097.913 1.004 1.004 0 001.348-.441 1.005 1.005 0 00-.445-1.344c-.746-.375-1.52-.71-2.301-1.004a1.05 1.05 0 00-.39-.062zM43 22a1 1 0 00-.707.293L28 36.586l-7.293-7.293a1 1 0 10-1.414 1.414l8 8c.195.196.45.293.707.293a.993.993 0 00.707-.293l15-15A1 1 0 0043 22z" fill="#BD9457"/></svg><svg fill="none" viewBox="0 0 64 64" id="ruble" xmlns="http://www.w3.org/2000/svg"><path d="M27.998 18c-1.101 0-2 .898-2 2v12h-2a1 1 0 100 2h2v2h-2a1 1 0 100 2h2v5a1 1 0 102 0v-9h6c3.309 0 6-2.691 6-6v-4c0-3.309-2.691-6-6-6h-6zm0 2h6c2.207 0 4 1.793 4 4v4c0 2.207-1.793 4-4 4h-6V20zm2 16a1 1 0 100 2h6a1 1 0 100-2h-6zm-8.625 12.395a.992.992 0 00-.988.492l-1 1.734a.997.997 0 00.363 1.363.995.995 0 001.363-.363l1-1.734a.998.998 0 00-.738-1.492zm19.25 0a1.002 1.002 0 00-.738 1.496l1 1.73a.995.995 0 001.363.363.993.993 0 00.364-1.363l-1-1.73a1.002 1.002 0 00-.989-.496zm-4.437 1.949a.945.945 0 00-.403.027c-.53.14-.847.691-.707 1.223l.52 1.933a1.004 1.004 0 001.227.707 1 1 0 00.706-1.222l-.515-1.934a1.007 1.007 0 00-.828-.734zm-10.371 0a1.007 1.007 0 00-.832.734l-.516 1.934a1 1 0 001.934.515l.52-1.933a1.001 1.001 0 00-1.106-1.25zm5.183.656a1 1 0 00-1 1v2a1 1 0 102 0v-2a1 1 0 00-1-1z" fill="#BD9457"/></svg><svg fill="none" viewBox="0 0 64 64" id="stethoscope" xmlns="http://www.w3.org/2000/svg"><path d="M53 7c-2.206 0-4 1.794-4 4s1.794 4 4 4 4-1.794 4-4-1.794-4-4-4zm0 2c1.103 0 2 .897 2 2s-.897 2-2 2-2-.897-2-2 .897-2 2-2zm-8.654 36.184a1 1 0 00-.41 1.916l1.832.8a.999.999 0 10.8-1.834l-1.834-.8a1 1 0 00-.388-.082zm-13.444 1.86a.995.995 0 00-.734.22l-1.55 1.263a1 1 0 00-.145 1.408.997.997 0 00.775.368c.222 0 .447-.075.633-.225l1.55-1.264a.999.999 0 00-.529-1.77zm11.057 1.329a1 1 0 00-.932 1.598l1.211 1.592a.996.996 0 001.4.189 1 1 0 00.19-1.4L42.62 48.76a.993.993 0 00-.66-.387zm-7.91 1.059a1 1 0 00-.908.63l-.739 1.86a1.001 1.001 0 001.862.736l.738-1.857a1.001 1.001 0 00-.953-1.37zm3.902.494a1 1 0 00-.853 1.127l.27 1.98a1 1 0 001.982-.271l-.272-1.983a1.004 1.004 0 00-1.127-.853z" fill="#BD9457"/></svg><svg fill="none" viewBox="0 0 64 64" id="syring" xmlns="http://www.w3.org/2000/svg"><path d="M42.725 17.31c-1.037 0-2.073.377-2.828 1.133l-3.828 3.828a3.974 3.974 0 00-1.172 2.83 3.97 3.97 0 001.172 2.829 3.971 3.971 0 002.828 1.172 3.977 3.977 0 002.83-1.172l3.828-3.828a3.974 3.974 0 001.172-2.83 3.97 3.97 0 00-1.172-2.829c-.755-.756-1.794-1.133-2.83-1.133zm.002 1.962c.535 0 1.036.207 1.414.585.378.378.586.88.586 1.415a1.99 1.99 0 01-.586 1.416l-3.828 3.828c-.756.756-2.074.756-2.83 0a1.986 1.986 0 01-.586-1.414c0-.534.208-1.038.586-1.416l3.828-3.829a1.99 1.99 0 011.416-.585zm-12.315 6.244a.996.996 0 00-.707.293l-14.142 14.14a.999.999 0 000 1.414l7.072 7.072a.997.997 0 001.414 0l14.14-14.142a.999.999 0 000-1.414l-7.07-7.07a.997.997 0 00-.707-.293zm0 2.414l5.657 5.656-2.122 2.121-2.12-2.121A.999.999 0 1030.412 35l2.121 2.121-2.12 2.121-2.122-2.12a.999.999 0 10-1.414 1.413l2.121 2.121-2.12 2.123-2.122-2.123a.999.999 0 10-1.414 1.414l2.121 2.123-2.12 2.122-5.66-5.659 12.73-12.726z" fill="#BD9457"/></svg><svg fill="none" viewBox="0 0 18 18" id="tel" xmlns="http://www.w3.org/2000/svg"><path d="M14.052 16.92h-.017c-2.705-.089-5.875-2.712-8.059-4.897-2.187-2.185-4.81-5.356-4.894-8.05-.03-.944 2.288-2.625 2.312-2.642.602-.419 1.27-.27 1.544.11.186.258 1.944 2.921 2.135 3.223.198.314.169.78-.079 1.249a75.3 75.3 0 01-.801 1.427c.229.327.835 1.127 2.087 2.378 1.252 1.252 2.051 1.86 2.379 2.089a75.846 75.846 0 011.427-.802c.461-.245.926-.276 1.242-.082.323.199 2.98 1.965 3.224 2.135.206.145.338.393.365.68.025.292-.065.6-.252.869-.015.022-1.676 2.313-2.613 2.313z" fill="#fff"/></svg><svg fill="none" viewBox="0 0 15 15" id="telegram" xmlns="http://www.w3.org/2000/svg"><g clip-path="url(#uclip0)"><path d="M7.5.21C3.358.21 0 3.447 0 7.44c0 3.992 3.358 7.229 7.5 7.229 4.142 0 7.5-3.237 7.5-7.23C15 3.447 11.642.21 7.5.21z" fill="#40B3E0"/><path d="M11.15 4.369l-1.34 6.51s-.187.451-.703.235l-3.09-2.285-1.125-.524L3 7.691s-.29-.099-.319-.316c-.028-.216.328-.334.328-.334l7.522-2.844s.618-.262.618.172" fill="#fff"/><path d="M5.778 10.806s-.09-.009-.203-.352a556.79 556.79 0 01-.683-2.149l4.543-2.78s.262-.154.253 0c0 0 .047.026-.094.153-.14.126-3.569 3.097-3.569 3.097" fill="#D2E5F1"/><path d="M7.201 9.705l-1.223 1.074s-.095.07-.2.027l.234-1.996" fill="#B5CFE4"/></g><defs><clipPath id="uclip0"><path fill="#fff" transform="translate(0 .21)" d="M0 0h15v14.459H0z"/></clipPath></defs></svg><svg fill="none" viewBox="0 0 15 15" id="viber" xmlns="http://www.w3.org/2000/svg"><g clip-path="url(#vclip0)"><path d="M4.5 12.132l-1.634-1.178C2.3 9.868 1.496 7.736 1.5 6.475 1.5 2.525 4.917.21 8.501.21c1.74 0 3.373.745 4.598 2.1 1.227 1.353 1.904 3.153 1.9 5.067 0 3.951-2.073 4.755-5.657 4.755l-.84 1.09C7.634 9.45 5.952 14.76 5 14.188l-.5-2.055z" fill="#fff"/><path d="M7.742.211C6.54.227 3.95.417 2.502 1.696c-1.075 1.03-1.45 2.55-1.494 4.43-.038 1.873-.081 5.392 3.437 6.35v1.458s-.023.585.377.705c.493.15.775-.3 1.243-.783l.875-.951c2.407.192 4.25-.253 4.463-.32.487-.15 3.238-.488 3.688-4.007.463-3.633-.225-5.922-1.462-6.958l-.007-.002c-.375-.33-1.875-1.385-5.231-1.397 0 0-.247-.015-.649-.01zm.042 1.022c.34-.001.55.013.55.013 2.838.006 4.194.83 4.513 1.108 1.044.86 1.58 2.925 1.188 5.96-.375 2.94-2.607 3.126-3.019 3.253-.175.054-1.8.44-3.845.313 0 0-1.524 1.772-2 2.23-.074.078-.162.102-.218.09-.081-.018-.106-.115-.1-.247l.012-2.421C1.884 10.736 2.06 7.735 2.09 6.169c.037-1.567.344-2.851 1.25-3.719 1.223-1.066 3.422-1.21 4.444-1.217zM8.01 2.8a.193.193 0 00-.132.052.18.18 0 00-.055.128c0 .048.02.094.055.128a.191.191 0 00.132.053c.465-.009.927.071 1.359.236.432.164.826.41 1.16.722.681.638 1.013 1.494 1.025 2.614a.176.176 0 00.055.128.188.188 0 00.133.053v-.006c.05 0 .097-.019.133-.052a.177.177 0 00.054-.128 3.76 3.76 0 00-.26-1.546 3.873 3.873 0 00-.87-1.322c-.745-.699-1.683-1.06-2.79-1.06h.001zm-2.471.416a.616.616 0 00-.384.072h-.008a2.946 2.946 0 00-.717.566c-.17.193-.264.385-.289.572a.721.721 0 00.032.326l.012.006a8.13 8.13 0 00.75 1.566 9.292 9.292 0 001.45 1.91l.019.025.025.018.019.018.018.018a9.742 9.742 0 001.988 1.403c.825.434 1.326.64 1.626.723v.006a.921.921 0 00.249.037 1.17 1.17 0 00.689-.285 2.72 2.72 0 00.58-.691V9.5c.145-.26.095-.507-.112-.676a8.522 8.522 0 00-1.343-.928c-.32-.168-.644-.066-.775.103l-.282.343c-.143.168-.406.144-.406.144l-.007.006c-1.95-.482-2.47-2.385-2.47-2.385s-.024-.259.157-.391l.35-.271a.583.583 0 00.106-.754 8.16 8.16 0 00-.962-1.295.53.53 0 00-.315-.18zm2.796.536a.19.19 0 00-.133.053.177.177 0 00.001.256.191.191 0 00.133.052c.625.01 1.22.26 1.656.693a2.1 2.1 0 01.444.72c.096.265.137.547.118.828 0 .048.02.094.056.128a.19.19 0 00.132.052l.006.008a.194.194 0 00.133-.054.18.18 0 00.055-.128c.018-.717-.213-1.32-.669-1.801-.456-.482-1.094-.753-1.906-.807h-.026zm.306.975a.197.197 0 00-.137.05.184.184 0 00-.06.129.178.178 0 00.052.131.191.191 0 00.134.058c.618.03.918.331.956.952a.178.178 0 00.057.124c.035.033.082.05.13.05h.007a.193.193 0 00.133-.059.18.18 0 00.048-.133c-.044-.807-.5-1.26-1.313-1.302H8.64z" fill="#8074D6"/></g><defs><clipPath id="vclip0"><path fill="#fff" transform="translate(0 .21)" d="M0 0h15v14.459H0z"/></clipPath></defs></svg><svg fill="none" viewBox="0 0 15 15" id="vk" xmlns="http://www.w3.org/2000/svg"><g clip-path="url(#wclip0)"><path d="M3.957 11.777l-2.897-.82a6.916 6.916 0 01-.996-3.581C.064 3.423 3.416.21 7.534.21c1.998 0 3.874.746 5.282 2.1 1.41 1.354 2.188 3.155 2.184 5.07 0 3.951-3.352 7.165-7.47 7.165h-.003c-1.247 0-2.475-.3-3.57-.873v-1.895zm.186.596l.226.13a6.423 6.423 0 003.158.832h.003c3.42 0-3.573-2.674-3.573-5.96 0-1.59 9.134-3.082 7.963-4.21C10.75 2.039 10.159 9.85 8.5 9.85 5.077 9.849 6 4.09 6 7.376 6 8.5 9.877 5.045 10.5 5.993l-8.083 4.778-.627 2.196 2.353-.594z" fill="#fff"/><path d="M9.802.21H5.197C.995.21-.001 1.17-.001 5.22v4.44c0 4.05.996 5.01 5.198 5.01h4.605c4.201 0 5.197-.96 5.197-5.01V5.22C15 1.17 13.994.21 9.802.21zm2.307 10.314h-1.09c-.412 0-.539-.315-1.28-1.04-.645-.602-.93-.682-1.09-.682-.224 0-.288.061-.288.358v.948c0 .255-.083.407-.781.407-1.155 0-2.437-.673-3.336-1.927C2.89 6.75 2.52 5.373 2.52 5.088c0-.153.063-.296.368-.296h1.091c.276 0 .381.122.489.407.54 1.502 1.438 2.817 1.809 2.817.136 0 .2-.061.2-.398v-1.55c-.042-.716-.432-.777-.432-1.031 0-.123.105-.245.273-.245h1.716c.232 0 .317.122.317.386V7.27c0 .226.105.306.169.306.136 0 .254-.08.507-.325.784-.847 1.345-2.154 1.345-2.154a.481.481 0 01.477-.296h1.091c.327 0 .4.162.327.388-.137.612-1.472 2.429-1.472 2.429-.115.183-.159.263 0 .468.117.153.498.47.752.755.466.51.825.94.92 1.236.108.294-.05.447-.359.447h.002z" fill="#4872A3"/></g><defs><clipPath id="wclip0"><path fill="#fff" transform="translate(0 .21)" d="M0 0h15v14.459H0z"/></clipPath></defs></svg><svg viewBox="6 6 15 15" fill="none" id="whatsApp" xmlns="http://www.w3.org/2000/svg"><path d="M6 21l1.06-3.85a7.38 7.38 0 01-.996-3.716c0-4.1 3.352-7.434 7.47-7.434a7.43 7.43 0 015.282 2.178A7.356 7.356 0 0121 13.438c0 4.1-3.352 7.434-7.47 7.434h-.003a7.498 7.498 0 01-3.57-.906L6 21zm4.143-2.382l.226.136a6.248 6.248 0 003.158.863h.003c3.42 0 6.206-2.77 6.206-6.18 0-1.65-.645-3.201-1.816-4.37a6.172 6.172 0 00-4.39-1.812c-3.423 0-6.209 2.77-6.209 6.179 0 1.166.326 2.303.95 3.287l.146.236-.627 2.278 2.353-.617z" fill="#000" fill-opacity=".24"/><path d="M7 20l.92-3.338a6.42 6.42 0 01-.865-3.22C7.055 9.89 9.96 7 13.527 7c1.733 0 3.357.672 4.58 1.888A6.388 6.388 0 0120 13.446c0 3.552-2.907 6.442-6.473 6.442h-.003a6.5 6.5 0 01-3.093-.784L7 20z" fill="#20B038"/><path d="M6 21l1.06-3.85a7.379 7.379 0 01-.996-3.716c0-4.1 3.352-7.434 7.47-7.434a7.43 7.43 0 015.282 2.178A7.356 7.356 0 0121 13.438c0 4.1-3.352 7.434-7.47 7.434h-.003a7.499 7.499 0 01-3.57-.906L6 21zm4.143-2.382l.225.136a6.255 6.255 0 003.159.863h.003c3.42 0 6.206-2.77 6.206-6.18 0-1.65-.645-3.201-1.816-4.37a6.172 6.172 0 00-4.39-1.812c-3.423 0-6.209 2.77-6.209 6.179 0 1.166.326 2.303.95 3.287l.146.236-.627 2.278 2.353-.617z" fill="#fff"/><path d="M11.778 10.324c-.129-.31-.264-.317-.386-.32-.1-.004-.215-.004-.33-.004a.61.61 0 00-.46.232c-.159.185-.602.634-.602 1.55 0 .911.618 1.795.704 1.92.086.124 1.194 2.058 2.942 2.803 1.455.62 1.752.495 2.066.463.317-.032 1.018-.449 1.164-.883.142-.435.142-.806.099-.884-.043-.078-.159-.125-.33-.217-.172-.093-1.019-.542-1.177-.606-.16-.064-.275-.092-.387.093-.116.185-.446.602-.546.727-.099.124-.201.138-.373.046-.172-.093-.727-.289-1.385-.923a5.513 5.513 0 01-.959-1.286c-.1-.185-.01-.285.076-.377.076-.082.172-.218.258-.325.086-.107.116-.185.172-.31a.367.367 0 00-.013-.324c-.043-.092-.38-1.008-.533-1.375z" fill="#fff"/></svg></svg>